<?xml version="1.0" encoding="UTF-8"?>
<svg width="16px" height="17px" viewBox="0 0 16 17" version="1.1" xmlns="http://www.w3.org/2000/svg" xmlns:xlink="http://www.w3.org/1999/xlink">
    <title>Icon/16px/Chrome Color</title>
    <g id="Lander" stroke="none" stroke-width="1" fill="none" fill-rule="evenodd">
        <g id="TotalAV:-Buy-Now-(Trustpilot)" transform="translate(-262.000000, -514.000000)">
            <g id="Header" transform="translate(151.000000, 134.000000)">
                <g id="Browsers" transform="translate(0.000000, 372.000000)">
                    <g id="Chrome" transform="translate(111.000000, 8.060461)">
                        <path d="M15.3997921,4.96603746 L10.316473,4.96603746 C11.228928,5.66615668 11.8319022,6.75829763 11.8319022,7.99963008 C11.8319022,8.98491157 11.3704637,9.81341011 10.8368741,10.5551537 C9.92583449,11.8228632 7.75470898,15.987487 7.75470898,15.987487 C7.83728219,15.9888701 7.91638135,15.9999678 8.00033776,15.9999678 C12.4182139,15.9999678 16,12.4182139 16,8.00030559 C15.9992923,6.92553493 15.7841902,5.90207096 15.3997921,4.96603746 Z" id="Path" fill="#FFCE44"></path>
                        <path d="M7.99895457,11.8319022 C6.32741792,11.8319022 5.05346793,10.7022865 4.39706394,9.26319006 C3.73651038,7.81508682 1.24271564,3.73094545 1.24271564,3.73094545 C0.460023201,4.96742065 1.15818466e-13,6.42803694 1.15818466e-13,7.99966224 C1.15818466e-13,12.0123281 2.957292,15.3255502 6.80966866,15.9014719 L9.29580761,11.5904552 C8.88918197,11.7389068 8.45621139,11.8319022 7.99895457,11.8319022 Z" id="Path" fill="#0CB061"></path>
                        <circle id="Oval" fill="#4D8CF6" cx="7.99895457" cy="8.00033776" r="2.58675797"></circle>
                        <path d="M7.98299963,4.16948096 C9.73295993,4.15700009 14.9834842,4.10357036 14.9834842,4.10357036 C13.6144479,1.6569649 11.0034037,-9.9475983e-15 7.99966224,-9.9475983e-15 C5.49476981,-9.9475983e-15 3.26050008,1.15251879 1.79435104,2.95449346 L4.23815794,7.29465361 C4.56845081,5.52182243 6.1150822,4.18266952 7.98299963,4.16948096 Z" id="Path" fill="#E63748"></path>
                    </g>
                </g>
            </g>
        </g>
    </g>
</svg>