<svg width="981" height="188" viewBox="0 0 981 188" fill="none" xmlns="http://www.w3.org/2000/svg">
<path d="M184.135 49.3871C184.135 42.4245 187.524 38.9897 194.254 38.9897H204.094V136.79H184.135V49.3871Z" fill="#FF1D1D"/>
<path d="M219.969 49.3871C219.969 42.6566 223.357 39.1754 230.088 38.9897H258.216C273.209 38.9897 284.349 43.028 291.636 51.1045C299.11 59.5524 302.916 71.8064 302.916 87.913C302.916 96.9179 301.477 104.762 298.692 111.539C295.86 118.27 291.915 123.793 286.855 128.11C282.91 131.266 278.5 133.541 273.627 134.84C268.753 136.187 261.837 136.79 252.832 136.79H219.922V49.3871H219.969ZM255.663 119.105C265.04 119.105 271.77 116.645 275.901 111.771C280.218 106.898 282.353 98.9138 282.353 87.8666C282.353 76.8194 280.404 69.0214 276.458 64.0084C272.513 58.7633 266.432 56.1175 258.216 56.1175H239.65V119.105H255.663Z" fill="#FF1D1D"/>
<path d="M318.468 49.3871C318.468 42.6566 321.856 39.1754 328.586 38.9897H389.3V55.8854H338.148V76.9587H376.396V83.4106C376.581 90.141 373.1 93.5295 365.952 93.5295H338.148V118.827H389.3V136.79H318.468V49.3871Z" fill="#FF1D1D"/>
<path d="M405.173 49.3871C405.173 46.5556 406.148 44.142 408.143 42.0996C410.093 40.0573 412.507 38.9897 415.292 38.9897H425.967L465.886 106.201V38.9897H485.567V136.79H464.772L424.853 69.6248V136.79H405.173V49.3871Z" fill="#FF1D1D"/>
<path d="M530.963 56.4425H502.045V49.4336C502.045 46.6021 503.02 44.1885 504.969 42.1461C506.919 40.1038 509.333 39.0826 512.118 39.0826H579.886V56.4889H550.922V136.836H530.963V56.4425Z" fill="#FF1D1D"/>
<path d="M594.924 49.3871C594.924 42.4245 598.313 38.9897 605.043 38.9897H614.883V136.79H594.924V49.3871Z" fill="#FF1D1D"/>
<path d="M659.675 56.4425H630.711V49.4336C630.711 46.6021 631.686 44.1885 633.682 42.1461C635.632 40.1038 638.045 39.0826 640.83 39.0826H708.552V56.4889H679.588V136.836H659.629V56.4425H659.675Z" fill="#FF1D1D"/>
<path d="M758.218 136.79V100.26L722.802 38.9897H747.263L768.337 81.1362L784.907 44.8846C786.811 40.9392 789.874 38.9897 794.191 38.9897H810.483L778.456 100.26V136.79H758.218Z" fill="#FF1D1D"/>
<path d="M124.397 131.035C123.654 131.035 123.005 131.36 122.494 131.917C111.447 144.449 95.0617 152.155 76.9592 151.458C48.5521 150.391 24.6938 128.157 21.6767 99.8892C20.6555 90.1416 22.0945 80.8118 25.4365 72.4568C25.6221 71.9462 26.0863 71.6213 27.1539 71.6213H33.0488C33.6058 71.6213 33.9772 72.1783 33.7451 72.6889C29.6604 81.4153 27.9894 91.4413 29.7532 102.024C33.3737 123.84 51.3371 140.968 73.2922 143.475C87.8671 145.146 101.374 140.504 111.493 131.963C111.865 131.638 111.633 131.035 111.168 131.035C104.856 131.035 79.28 131.035 79.28 131.035C58.6709 131.035 41.9144 114.278 41.9144 93.6693C41.9144 82.0651 47.2524 71.7142 55.561 64.8445C55.9323 64.5195 55.7467 63.9625 55.2361 63.9625H2.97072C1.48538 63.9625 0.324962 65.2158 0.417796 66.7011C1.8103 86.4283 7.10182 110.704 21.7231 134.887C38.3403 162.32 60.1563 178.287 74.0349 186.596C77.2377 188.499 81.2759 188.452 84.4787 186.549C115.021 168.261 133.124 140.69 137.765 133.077C138.276 132.242 137.672 131.128 136.651 131.128H124.397V131.035Z" fill="#90A0AF"/>
<path d="M34.0235 56.2572C34.7198 56.2572 35.3696 55.9323 35.8338 55.4217C46.881 42.8892 63.2662 35.184 81.4151 35.8802C110.008 36.9478 133.913 59.46 136.698 87.9135C137.626 97.5218 136.187 106.666 132.938 114.882C132.752 115.392 132.242 115.717 131.731 115.717H125.372C124.815 115.717 124.444 115.16 124.676 114.65C128.76 105.923 130.431 95.8972 128.667 85.2677C125.047 63.6839 107.409 46.6953 85.6855 43.9103C70.8785 42.0072 57.1391 46.6953 46.881 55.3753C46.5097 55.6538 46.7418 56.2572 49.2019 56.2572H78.2124C96.547 56.2572 114.232 71.0642 116.321 89.2596C117.852 102.628 112.282 114.742 102.906 122.448C102.535 122.773 102.72 123.33 103.231 123.33H141.339C142.314 123.33 143.242 122.773 143.66 121.844C160.742 85.964 159.303 51.6619 157.075 34.4877C156.471 29.8924 152.943 26.3183 148.348 25.6685C139.483 24.4617 128.946 22.1872 117.527 18.1026C104.02 13.2752 93.1122 7.19461 84.7571 1.67101C81.3687 -0.557002 77.0055 -0.557002 73.6171 1.67101C65.2621 7.19461 54.3541 13.2752 40.8468 18.1026C29.4283 22.2337 18.8917 24.4617 10.026 25.6685C5.43077 26.3183 1.85667 29.8924 1.29967 34.4877C0.649836 39.5471 0.0464168 46.0919 0 53.7043C0 55.1432 1.16042 56.3036 2.55293 56.3036C11.697 56.3036 29.4283 56.3036 34.0235 56.3036V56.2572Z" fill="#FF1D1D"/>
<path d="M78.8628 63.9162C63.2667 64.0555 50.0844 76.8201 49.4809 92.4162C48.8311 109.358 62.3848 123.33 79.1877 123.33C91.6274 123.33 103.139 115.764 107.131 103.974C114.232 83.0864 98.7756 63.6841 78.8628 63.8698V63.9162ZM84.8506 112.747C84.8506 114.139 83.6901 115.3 82.2976 115.3H76.0778C74.6853 115.3 73.5249 114.139 73.5249 112.747V74.4993C73.5249 73.1067 74.6853 71.9463 76.0778 71.9463H82.2976C83.6901 71.9463 84.8506 73.1067 84.8506 74.4993V112.747Z" fill="#FF1D1D"/>
<path d="M825.848 49.3871C825.848 42.4246 829.237 38.9897 835.967 38.9897H845.808V136.79H825.848V49.3871Z" fill="#90A0AF"/>
<path d="M970.577 55.7006C969.231 55.7006 967.977 55.4685 966.817 55.0044C965.657 54.5402 964.682 53.8904 963.846 53.1013C963.011 52.2658 962.361 51.3374 961.897 50.2234C961.433 49.1094 961.201 47.9026 961.201 46.6029C961.201 45.3032 961.433 44.0964 961.897 42.9824C962.361 41.8684 963.011 40.8937 963.846 40.1046C964.682 39.3155 965.703 38.6656 966.817 38.2015C967.977 37.7373 969.231 37.5052 970.577 37.5052C971.923 37.5052 973.223 37.7373 974.337 38.2015C975.497 38.6656 976.472 39.3155 977.354 40.1046C978.189 40.8937 978.885 41.8684 979.35 42.9824C979.814 44.0964 980.092 45.3032 980.092 46.6029C980.092 47.9026 979.86 49.1094 979.35 50.2234C978.885 51.3374 978.189 52.3122 977.354 53.1013C976.518 53.9368 975.497 54.5402 974.337 55.0044C973.176 55.4685 971.923 55.7006 970.577 55.7006ZM970.577 54.633C971.737 54.633 972.805 54.4474 973.826 54.0296C974.847 53.6119 975.683 53.1013 976.472 52.405C977.261 51.7088 977.818 50.8733 978.236 49.8521C978.653 48.8773 978.885 47.7633 978.885 46.6029C978.885 45.4889 978.7 44.4213 978.282 43.4466C977.864 42.4718 977.307 41.6363 976.565 40.8937C975.822 40.1974 974.94 39.594 973.919 39.2226C972.898 38.8049 971.83 38.6192 970.623 38.6192C969.416 38.6192 968.349 38.8049 967.328 39.2226C966.353 39.6404 965.471 40.1974 964.728 40.8937C963.986 41.5899 963.429 42.4718 963.011 43.4002C962.593 44.3749 962.407 45.3961 962.407 46.5565C962.407 47.7169 962.593 48.7845 963.011 49.7593C963.429 50.734 963.986 51.5695 964.728 52.3122C965.471 53.0549 966.306 53.6119 967.328 54.0296C968.302 54.4474 969.416 54.633 970.623 54.633H970.577ZM966.585 40.9865H971.459C971.969 40.9865 972.433 41.0793 972.851 41.3114C973.269 41.5435 973.64 41.822 973.965 42.1469C974.29 42.4718 974.522 42.8896 974.708 43.3073C974.894 43.7251 974.986 44.1892 974.986 44.6534C974.986 45.3961 974.801 46.0923 974.383 46.6958C973.965 47.2992 973.408 47.7169 972.758 47.949L975.451 52.2194H973.223L970.762 48.3203H968.674V52.2194H966.678V40.9865H966.585ZM971.319 46.5565C971.83 46.5565 972.248 46.3708 972.526 46.0459C972.805 45.721 972.944 45.2568 972.944 44.6534C972.944 44.05 972.758 43.5858 972.433 43.2609C972.109 42.936 971.691 42.7503 971.227 42.7503H968.534V46.5101H971.273L971.319 46.5565Z" fill="#90A0AF"/>
<path d="M920.773 121.102C918.313 121.659 915.76 121.983 913.114 121.983C894.687 121.983 879.787 107.037 879.787 88.6562C879.787 70.2751 894.733 55.3289 913.114 55.3289C931.495 55.3289 946.441 70.2751 946.441 88.6562C946.441 101.235 939.479 112.189 929.174 117.852L944.167 132.706C957.999 122.958 967.004 106.852 967.004 88.6562C967.004 58.903 942.867 34.7662 913.114 34.7662C883.361 34.7662 859.224 58.903 859.224 88.6562C859.224 118.409 883.361 142.546 913.114 142.546C921.655 142.546 929.685 140.55 936.879 137.023L920.773 121.055V121.102Z" fill="#90A0AF"/>
<path d="M929.084 88.7959C927.088 86.0573 923.746 84.3399 920.033 84.572C915.02 84.8969 910.888 88.8887 910.424 93.9018C910.192 96.4083 910.842 98.7755 912.142 100.679C912.513 101.236 912.931 101.746 913.395 102.21L966.867 155.218L967.006 134.006C967.006 129.086 965.103 124.351 961.576 120.916L929.037 88.7959H929.084Z" fill="#90A0AF"/>
</svg>
