<?xml version="1.0" encoding="UTF-8"?>
<svg width="294px" height="40px" viewBox="0 0 294 40" version="1.1" xmlns="http://www.w3.org/2000/svg">
    <g id="Order-Form" stroke="none" stroke-width="1" fill="none" fill-rule="evenodd">
        <g id="Desktop-TAB.-3.1" transform="translate(-162, -48)">
            <g id="Brand/Logo/Total-Adblock" transform="translate(162, 48)">
                <g id="Brand/Wordmark/Total-Adblock" transform="translate(45.8074, 7.5)" fill="#1D2023">
                    <path d="M-1.42108547e-14,5.34439906 L7.72635537,5.34439906 L7.72635537,25.8022615 L13.7881905,25.8022615 L13.7881905,5.34439906 L21.502124,5.34439906 L21.502124,0.348007381 L-1.42108547e-14,0.348007381 L-1.42108547e-14,5.34439906 Z M46.531694,13.0751345 C46.531694,4.66081314 41.2151665,0 34.3831803,0 C27.5263504,0 22.2470883,4.66081314 22.2470883,13.0751345 C22.2470883,21.4521693 27.5263504,26.1502689 34.3831803,26.1502689 C41.2151665,26.1502689 46.531694,21.4894558 46.531694,13.0751345 Z M40.2462667,13.0751345 C40.2462667,18.0590973 38.0600311,20.7561545 34.3831803,20.7561545 C30.7187513,20.7561545 28.5200939,18.0590973 28.5200939,13.0751345 C28.5200939,8.09117161 30.7187513,5.3941144 34.3831803,5.3941144 C38.0600311,5.3941144 40.2462667,8.09117161 40.2462667,13.0751345 Z M68.778827,0.348007381 L68.778827,5.34439906 L61.0648934,5.34439906 L61.0648934,25.8022615 L55.0030583,25.8022615 L55.0030583,5.34439906 L47.2767029,5.34439906 L47.2767029,0.348007381 L68.778827,0.348007381 Z M84.2814596,0.348007381 L92.8649187,25.8022615 L86.2565247,25.8022615 L84.5795826,20.4578625 L75.7973748,20.4578625 L74.1204327,25.8022615 L67.5120388,25.8022615 L76.0954979,0.348007381 L84.2814596,0.348007381 Z M80.2816422,6.76128626 L80.0828935,6.76128626 L77.2631464,15.7846205 L83.113811,15.7846205 L80.2816422,6.76128626 Z M95.6104439,25.8022615 L112.342599,25.8022615 L112.342599,20.8058698 L101.759232,20.8058698 L101.759232,0.348007381 L95.6104439,0.348007381 L95.6104439,25.8022615 Z M121.402294,25.8022615 L123.961183,18.5935372 L134.246428,18.5935372 L136.805317,25.8022615 L140.034984,25.8022615 L130.693795,0.348007381 L127.513816,0.348007381 L118.172628,25.8022615 L121.402294,25.8022615 Z M124.930083,15.8591935 L129.004431,4.37494993 L129.20318,4.37494993 L133.277528,15.8591935 L124.930083,15.8591935 Z M149.776294,26.1999843 C153.453145,26.1999843 154.695324,23.9130786 155.341258,22.8690565 L155.689068,22.8690565 L155.689068,25.8022615 L158.521237,25.8022615 L158.521237,0.348007381 L155.589694,0.348007381 L155.589694,9.74420667 L155.341258,9.74420667 C154.695324,8.74989986 153.55252,6.46299422 149.825982,6.46299422 C145.006326,6.46299422 141.677285,10.2910754 141.677285,16.3066316 C141.677285,22.3719031 145.006326,26.1999843 149.776294,26.1999843 Z M150.173792,23.5650712 C146.496941,23.5650712 144.608828,20.3335741 144.608828,16.2569162 C144.608828,12.2299737 146.447254,9.09790725 150.173792,9.09790725 C153.751268,9.09790725 155.639381,11.981397 155.639381,16.2569162 C155.639381,20.5821508 153.701581,23.5650712 150.173792,23.5650712 Z M163.641618,25.8022615 L166.473787,25.8022615 L166.473787,22.8690565 L166.821597,22.8690565 C167.467531,23.9130786 168.70971,26.1999843 172.386561,26.1999843 C177.156529,26.1999843 180.48557,22.3719031 180.48557,16.3066316 C180.48557,10.2910754 177.156529,6.46299422 172.336873,6.46299422 C168.610336,6.46299422 167.467531,8.74989986 166.821597,9.74420667 L166.573161,9.74420667 L166.573161,0.348007381 L163.641618,0.348007381 L163.641618,25.8022615 Z M166.523474,16.2569162 C166.523474,11.981397 168.411587,9.09790725 171.989063,9.09790725 C175.715601,9.09790725 177.554027,12.2299737 177.554027,16.2569162 C177.554027,20.3335741 175.665914,23.5650712 171.989063,23.5650712 C168.461274,23.5650712 166.523474,20.5821508 166.523474,16.2569162 Z M186.848131,0.348007381 L183.916587,0.348007381 L183.916587,25.8022615 L186.848131,25.8022615 L186.848131,0.348007381 Z M198.924563,26.1999843 C204.092029,26.1999843 207.570131,22.2724724 207.570131,16.3563469 C207.570131,10.3905061 204.092029,6.46299422 198.924563,6.46299422 C193.757097,6.46299422 190.278995,10.3905061 190.278995,16.3563469 C190.278995,22.2724724 193.757097,26.1999843 198.924563,26.1999843 Z M198.924563,23.5650712 C194.999276,23.5650712 193.210538,20.1844281 193.210538,16.3563469 C193.210538,12.5282657 194.999276,9.09790725 198.924563,9.09790725 C202.849849,9.09790725 204.638588,12.5282657 204.638588,16.3563469 C204.638588,20.1844281 202.849849,23.5650712 198.924563,23.5650712 Z M218.752338,26.1999843 C222.975747,26.1999843 225.758229,23.6147866 226.255101,20.2341434 L223.323557,20.2341434 C222.776999,22.3221877 221.037948,23.5650712 218.752338,23.5650712 C215.274235,23.5650712 213.038313,20.6815815 213.038313,16.2569162 C213.038313,11.9316816 215.323923,9.09790725 218.752338,9.09790725 C221.336071,9.09790725 222.876373,10.6887981 223.323557,12.428835 L226.255101,12.428835 C225.758229,8.84933054 222.727311,6.46299422 218.70265,6.46299422 C213.535184,6.46299422 210.10677,10.5396521 210.10677,16.3563469 C210.10677,22.073611 213.386123,26.1999843 218.752338,26.1999843 Z M229.487345,25.8022615 L232.418888,25.8022615 L232.418888,18.6556814 L234.468484,16.7540696 L241.611015,25.8022615 L245.337553,25.8022615 L236.679563,14.8648867 L244.741307,6.71157092 L241.114143,6.71157092 L232.766698,15.2128941 L232.418888,15.2128941 L232.418888,0.348007381 L229.487345,0.348007381 L229.487345,25.8022615 Z" id="Total-Adblock"></path>
                </g>
                <g id="Brand/Icons/Color/Total-Adblock" transform="translate(0, 0)">
                    <path d="M20.001547,0 L19.996,16.007 L13.7827973,9.77777778 L9.90549575,13.6633525 L16.1344958,19.9077778 L9.90549575,26.1519017 L13.7827973,30.0374764 L19.994,23.808 L19.9892762,40 L11.6530871,40 L0,28.3403068 L0,11.6596932 L11.6530871,0 L20.001547,0 Z" id="Combined-Shape" fill="#E63748"></path>
                    <path d="M28.3201426,0 L39.9773371,11.6596932 L39.9773371,28.3403068 L28.3201426,40 L19.9886686,40 L19.9886686,23.813 L20.0104958,23.7927778 L26.2389591,30.0374764 L30.1162606,26.1519017 L23.8864958,19.9077778 L30.1162606,13.6633525 L26.2389591,9.77777778 L20.0104958,16.0217778 L19.9886686,16 L19.9886686,0 L28.3201426,0 Z" id="Combined-Shape" fill="#C42B34"></path>
                </g>
            </g>
        </g>
    </g>
</svg>
