<?xml version="1.0" encoding="UTF-8"?>
<svg width="18px" height="18px" viewBox="0 0 18 18" version="1.1" xmlns="http://www.w3.org/2000/svg" xmlns:xlink="http://www.w3.org/1999/xlink">
    <title>Icon/16px/Safari Color</title>
    <g id="Lander" stroke="none" stroke-width="1" fill="none" fill-rule="evenodd">
        <g id="TotalAV:-Buy-Now-(Trustpilot)" transform="translate(-340.000000, -513.000000)" fill-rule="nonzero">
            <g id="Header" transform="translate(151.000000, 134.000000)">
                <g id="Browsers" transform="translate(0.000000, 372.000000)">
                    <g id="888876" transform="translate(189.000000, 7.000000)">
                        <path d="M9,0 C4.02943359,0 0,4.02943359 0,9 C0,13.9705664 4.02943359,18 9,18 C13.9705664,18 18,13.9705664 18,9 C17.9946211,4.03164844 13.9683516,0.00537890625 9,0 Z" id="Path" fill="#ECEFF1"></path>
                        <path d="M9,1.50001172 C4.85785547,1.50001172 1.50001172,4.85785547 1.50001172,9 C1.50001172,13.1421445 4.85785547,16.4999883 9,16.4999883 C13.1421445,16.4999883 16.4999883,13.1421445 16.4999883,9 C16.4954531,4.85975391 13.1402461,1.50454687 9,1.50001172 Z" id="Path" fill="#2196F3"></path>
                        <path d="M13.2000117,8.63251172 L11.925,8.37675 C11.8507148,8.04322266 11.7203555,7.72467188 11.5395117,7.43473828 C11.5242188,7.40995312 11.5061133,7.38706641 11.4855117,7.3665 L10.6335,6.51825 C10.6129336,6.49764844 10.5900117,6.47954297 10.5652617,6.46425 C10.2752578,6.28351172 9.95677734,6.1531875 9.62325,6.07876172 L9.36748828,4.80002344 C9.32628516,4.59706641 9.12832031,4.46593359 8.92536328,4.50713672 C8.77777734,4.53708984 8.66246484,4.6524375 8.63247656,4.80002344 L8.37671484,6.07503516 C7.22035547,6.31698047 6.31691016,7.22042578 6.07496484,8.37678516 L4.79995313,8.63177344 C4.59699609,8.67297656 4.46586328,8.87094141 4.50706641,9.07389844 C4.53701953,9.22148437 4.65236719,9.33679688 4.79995313,9.36678516 L6.07496484,9.62254687 C6.14917969,9.95610938 6.27953906,10.2746602 6.46045313,10.5645586 C6.47574609,10.5893437 6.49385156,10.6122305 6.51445313,10.6327969 L7.36270313,11.4810469 C7.38326953,11.5016484 7.40619141,11.5197539 7.43094141,11.5350469 C7.72083984,11.7159609 8.03939063,11.8463203 8.37295313,11.9205352 L8.62871484,13.1955469 C8.66991797,13.3985039 8.86788281,13.5296367 9.07083984,13.4884336 C9.21842578,13.4584805 9.33373828,13.3431328 9.36372656,13.1955469 L9.61948828,11.9205352 C10.7761992,11.6809453 11.6812617,10.7791523 11.925,9.62328516 L13.2000117,9.36829687 C13.4029688,9.32709375 13.5341016,9.12912891 13.4928984,8.92617187 C13.4629453,8.77858594 13.3475977,8.66327344 13.2000117,8.63328516 L13.2000117,8.63251172 L13.2000117,8.63251172 Z" id="Path" fill="#FAFAFA"></path>
                        <path d="M13.4325,5.085 L10.0575,9.96001172 C10.0471289,9.981 10.0316602,9.99903516 10.0125,10.0125 L7.9875,7.9875 C8.001,7.968375 8.01903516,7.95290625 8.03998828,7.9425 L12.915,4.5675 C13.0899375,4.45661719 13.3216172,4.50850781 13.4325,4.68344531 C13.5101953,4.80603516 13.5101953,4.96241016 13.4325,5.085 Z" id="Path" fill="#F44336"></path>
                        <path d="M10.0125,10.0125 C9.99903516,10.0316602 9.98096484,10.0471289 9.96001172,10.0575 L5.085,13.4325 C4.93832813,13.5374766 4.73670703,13.5182812 4.6125,13.3875 C4.48358203,13.2623789 4.46449219,13.0621992 4.5675,12.915 L7.9425,8.03998828 C7.95287109,8.019 7.96833984,8.00096484 7.9875,7.9875 L10.0125,10.0125 Z" id="Path" fill="#CFD8DC"></path>
                    </g>
                </g>
            </g>
        </g>
    </g>
</svg>